<svg width="245" height="40" viewBox="0 0 245 40" fill="none" xmlns="http://www.w3.org/2000/svg">
<path d="M50.82 30V16.112H53.984L54.264 18.464C54.6933 17.6427 55.3093 16.9893 56.112 16.504C56.9333 16.0187 57.8947 15.776 58.996 15.776C60.7133 15.776 62.048 16.3173 63 17.4C63.952 18.4827 64.428 20.0693 64.428 22.16V30H60.844V22.496C60.844 21.3013 60.6013 20.3867 60.116 19.752C59.6307 19.1173 58.8747 18.8 57.848 18.8C56.84 18.8 56.0093 19.1547 55.356 19.864C54.7213 20.5733 54.404 21.5627 54.404 22.832V30H50.82ZM73.0632 30.336C71.3272 30.336 69.9832 29.7947 69.0312 28.712C68.0978 27.6293 67.6312 26.0427 67.6312 23.952V16.112H71.1872V23.616C71.1872 24.8107 71.4298 25.7253 71.9152 26.36C72.4005 26.9947 73.1658 27.312 74.2112 27.312C75.2005 27.312 76.0125 26.9573 76.6472 26.248C77.3005 25.5387 77.6272 24.5493 77.6272 23.28V16.112H81.2112V30H78.0472L77.7672 27.648C77.3378 28.4693 76.7125 29.1227 75.8912 29.608C75.0885 30.0933 74.1458 30.336 73.0632 30.336ZM83.5743 30L88.6143 23.056L83.5743 16.112H87.4103L90.9383 21.04L94.4383 16.112H98.3023L93.2343 23.056L98.3023 30H94.4383L90.9383 25.072L87.4103 30H83.5743ZM106.774 30C105.318 30 104.151 29.6453 103.274 28.936C102.396 28.2267 101.958 26.9667 101.958 25.156V19.108H99.5776V16.112H101.958L102.378 12.388H105.542V16.112H109.294V19.108H105.542V25.184C105.542 25.856 105.682 26.3227 105.962 26.584C106.26 26.8267 106.764 26.948 107.474 26.948H109.21V30H106.774ZM111.195 33.108L118.195 8.244H121.695L114.667 33.108H111.195Z" fill="#003C3C"/>
<path d="M124.156 30V16.112H127.32L127.6 18.464C128.029 17.6427 128.645 16.9893 129.448 16.504C130.269 16.0187 131.231 15.776 132.332 15.776C134.049 15.776 135.384 16.3173 136.336 17.4C137.288 18.4827 137.764 20.0693 137.764 22.16V30H134.18V22.496C134.18 21.3013 133.937 20.3867 133.452 19.752C132.967 19.1173 132.211 18.8 131.184 18.8C130.176 18.8 129.345 19.1547 128.692 19.864C128.057 20.5733 127.74 21.5627 127.74 22.832V30H124.156ZM140.883 23.392V20.396H152.615V23.392H140.883ZM161.837 25.856C161.165 25.856 160.539 25.7813 159.961 25.632L158.925 26.668C159.242 26.836 159.671 26.976 160.213 27.088C160.754 27.2 161.631 27.312 162.845 27.424C164.693 27.592 166.037 28.0307 166.877 28.74C167.717 29.4493 168.137 30.4293 168.137 31.68C168.137 32.5013 167.913 33.276 167.465 34.004C167.017 34.7507 166.326 35.348 165.393 35.796C164.459 36.2627 163.265 36.496 161.809 36.496C159.83 36.496 158.234 36.1227 157.021 35.376C155.807 34.648 155.201 33.5467 155.201 32.072C155.201 30.8213 155.807 29.7387 157.021 28.824C156.647 28.656 156.321 28.4787 156.041 28.292C155.779 28.1053 155.546 27.9093 155.341 27.704V27.06L157.777 24.484C156.694 23.532 156.153 22.3093 156.153 20.816C156.153 19.8827 156.377 19.0333 156.825 18.268C157.291 17.5027 157.945 16.896 158.785 16.448C159.625 16 160.642 15.776 161.837 15.776C162.621 15.776 163.349 15.888 164.021 16.112H169.285V18.296L166.905 18.464C167.278 19.1733 167.465 19.9573 167.465 20.816C167.465 21.7493 167.241 22.5987 166.793 23.364C166.345 24.1293 165.691 24.736 164.833 25.184C163.993 25.632 162.994 25.856 161.837 25.856ZM161.837 23.112C162.565 23.112 163.162 22.916 163.629 22.524C164.114 22.132 164.357 21.572 164.357 20.844C164.357 20.116 164.114 19.556 163.629 19.164C163.162 18.772 162.565 18.576 161.837 18.576C161.071 18.576 160.455 18.772 159.989 19.164C159.522 19.556 159.289 20.116 159.289 20.844C159.289 21.572 159.522 22.132 159.989 22.524C160.455 22.916 161.071 23.112 161.837 23.112ZM158.477 31.708C158.477 32.3987 158.794 32.912 159.429 33.248C160.082 33.6027 160.875 33.78 161.809 33.78C162.705 33.78 163.433 33.5933 163.993 33.22C164.553 32.8653 164.833 32.38 164.833 31.764C164.833 31.26 164.646 30.84 164.273 30.504C163.918 30.168 163.199 29.9627 162.117 29.888C161.351 29.832 160.642 29.748 159.989 29.636C159.447 29.9347 159.055 30.2613 158.813 30.616C158.589 30.9707 158.477 31.3347 158.477 31.708ZM171.898 30V16.112H175.09L175.426 18.716C175.93 17.82 176.611 17.1107 177.47 16.588C178.347 16.0467 179.374 15.776 180.55 15.776V19.556H179.542C178.758 19.556 178.058 19.6773 177.442 19.92C176.826 20.1627 176.341 20.5827 175.986 21.18C175.65 21.7773 175.482 22.608 175.482 23.672V30H171.898ZM189.418 30.336C188.074 30.336 186.86 30.028 185.778 29.412C184.714 28.796 183.864 27.9467 183.23 26.864C182.614 25.7627 182.306 24.4933 182.306 23.056C182.306 21.6187 182.623 20.3587 183.258 19.276C183.892 18.1747 184.742 17.316 185.806 16.7C186.888 16.084 188.102 15.776 189.446 15.776C190.771 15.776 191.966 16.084 193.03 16.7C194.112 17.316 194.962 18.1747 195.578 19.276C196.212 20.3587 196.53 21.6187 196.53 23.056C196.53 24.4933 196.212 25.7627 195.578 26.864C194.962 27.9467 194.112 28.796 193.03 29.412C191.947 30.028 190.743 30.336 189.418 30.336ZM189.418 27.228C190.351 27.228 191.163 26.8827 191.854 26.192C192.544 25.4827 192.89 24.4373 192.89 23.056C192.89 21.6747 192.544 20.6387 191.854 19.948C191.163 19.2387 190.36 18.884 189.446 18.884C188.494 18.884 187.672 19.2387 186.982 19.948C186.31 20.6387 185.974 21.6747 185.974 23.056C185.974 24.4373 186.31 25.4827 186.982 26.192C187.672 26.8827 188.484 27.228 189.418 27.228ZM199.734 30V9.84H203.318V21.74L208.246 16.112H212.502L206.818 22.44L213.426 30H208.946L203.318 23.028V30H199.734Z" fill="#02238F"/>
<path d="M34.3016 10.5323C33.8396 9.99067 33.3179 9.52324 32.759 9.10775C32.2596 8.7442 31.7305 8.42516 31.1567 8.16548C30.8809 8.03935 30.5903 7.93548 30.2848 7.83902C29.8451 7.69805 29.3681 7.6016 28.8762 7.51999H22.6758L18.577 12.172V11.6304V7.61644H9.88V32.16H18.577V21.6318V15.5998H19.7843H22.2063H26.6405H26.7448L27.423 15.5849V32.1526H36.12V16.8017C36.12 15.4959 35.9933 14.331 35.7399 13.3072C35.4865 12.2907 35.0096 11.3707 34.3016 10.5323Z" fill="#1F1E37"/>
</svg>
