<svg width="1280" height="640" viewBox="0 0 1280 640" fill="none" xmlns="http://www.w3.org/2000/svg">
<rect width="1280" height="640" fill="#1A202C"/>
<g clip-path="url(#clip0)">
<path d="M95.5842 67.2694L92.8465 72.2569L83.4835 55.1954L54.7408 107.565H74.2015C74.2015 110.319 76.324 112.552 78.9423 112.552H54.7408C53.0472 112.552 51.4825 111.601 50.6359 110.058C49.7892 108.515 49.7893 106.614 50.6361 105.071L79.3788 52.7016C80.2256 51.1584 81.7907 50.2077 83.4845 50.2077C85.1782 50.2077 86.7433 51.1584 87.5902 52.7016L95.5842 67.2694Z" fill="#00C58E"/>
<path d="M116.333 105.071L98.322 72.2569L95.5842 67.2693L92.8464 72.2569L74.8375 105.071C73.9907 106.614 73.9907 108.515 74.8373 110.058C75.6839 111.601 77.2487 112.552 78.9422 112.552H112.222C113.916 112.552 115.481 111.602 116.329 110.059C117.176 108.516 117.176 106.614 116.329 105.071H116.333ZM78.9422 107.564L95.5842 77.2444L112.222 107.564H78.9422L78.9422 107.564Z" fill="white"/>
<path d="M129.21 110.058C128.363 111.601 126.799 112.552 125.105 112.552H112.222C114.84 112.552 116.963 110.319 116.963 107.565H125.095L102.02 65.5175L98.322 72.2569L95.5842 67.2694L97.9151 63.0238C98.7619 61.4805 100.327 60.5298 102.021 60.5298C103.714 60.5298 105.28 61.4805 106.126 63.0238L129.21 105.071C130.057 106.614 130.057 108.515 129.21 110.058Z" fill="#108775"/>
</g>
<g clip-path="url(#clip1)">
<path d="M1195.58 544.269L1192.85 549.257L1183.48 532.195L1154.74 584.564H1174.2C1174.2 587.319 1176.32 589.552 1178.94 589.552H1154.74C1153.05 589.552 1151.48 588.601 1150.64 587.058C1149.79 585.515 1149.79 583.614 1150.64 582.071L1179.38 529.702C1180.23 528.158 1181.79 527.208 1183.48 527.208C1185.18 527.208 1186.74 528.158 1187.59 529.702L1195.58 544.269Z" fill="#00C58E"/>
<path d="M1216.33 582.071L1198.32 549.257L1195.58 544.269L1192.85 549.257L1174.84 582.071C1173.99 583.614 1173.99 585.515 1174.84 587.058C1175.68 588.601 1177.25 589.552 1178.94 589.552H1212.22C1213.92 589.552 1215.48 588.602 1216.33 587.059C1217.18 585.515 1217.18 583.614 1216.33 582.071H1216.33ZM1178.94 584.564L1195.58 554.244L1212.22 584.564H1178.94L1178.94 584.564Z" fill="white"/>
<path d="M1229.21 587.058C1228.36 588.601 1226.8 589.552 1225.11 589.552H1212.22C1214.84 589.552 1216.96 587.319 1216.96 584.564H1225.1L1202.02 542.517L1198.32 549.257L1195.58 544.269L1197.92 540.024C1198.76 538.48 1200.33 537.53 1202.02 537.53C1203.71 537.53 1205.28 538.48 1206.13 540.024L1229.21 582.071C1230.06 583.614 1230.06 585.515 1229.21 587.058Z" fill="#108775"/>
</g>
<path d="M118.254 526.331C117.099 524.977 115.795 523.808 114.397 522.769C113.149 521.861 111.826 521.063 110.392 520.414C109.702 520.098 108.976 519.839 108.212 519.598C107.113 519.245 105.92 519.004 104.691 518.8H89.1895L78.9425 530.43V529.076V519.041H57.2V580.4H78.9425V554.08V539H81.9607H88.0158H99.1013H99.3621L101.058 538.962V580.382H122.8V542.004C122.8 538.74 122.483 535.828 121.85 533.268C121.216 530.727 120.024 528.427 118.254 526.331Z" fill="#D0DBFF"/>
<path d="M1218.25 66.3307C1217.1 64.9767 1215.79 63.8081 1214.4 62.7694C1213.15 61.8605 1211.83 61.0629 1210.39 60.4137C1209.7 60.0984 1208.98 59.8387 1208.21 59.5976C1207.11 59.2452 1205.92 59.004 1204.69 58.8H1189.19L1178.94 70.43V69.0759V59.0411H1157.2V120.4H1178.94V94.0795V78.9994H1181.96H1188.02H1199.1H1199.36L1201.06 78.9624V120.381H1222.8V82.0043C1222.8 78.7398 1222.48 75.8276 1221.85 73.2679C1221.22 70.7268 1220.02 68.4267 1218.25 66.3307Z" fill="#D0DBFF"/>
<path d="M468.298 301V271.24H475.078L475.678 276.28C476.598 274.52 477.918 273.12 479.638 272.08C481.398 271.04 483.458 270.52 485.818 270.52C489.498 270.52 492.358 271.68 494.398 274C496.438 276.32 497.458 279.72 497.458 284.2V301H489.778V284.92C489.778 282.36 489.258 280.4 488.218 279.04C487.178 277.68 485.558 277 483.358 277C481.198 277 479.418 277.76 478.018 279.28C476.658 280.8 475.978 282.92 475.978 285.64V301H468.298ZM515.962 301.72C512.242 301.72 509.362 300.56 507.322 298.24C505.322 295.92 504.322 292.52 504.322 288.04V271.24H511.942V287.32C511.942 289.88 512.462 291.84 513.502 293.2C514.542 294.56 516.182 295.24 518.422 295.24C520.542 295.24 522.282 294.48 523.642 292.96C525.042 291.44 525.742 289.32 525.742 286.6V271.24H533.422V301H526.642L526.042 295.96C525.122 297.72 523.782 299.12 522.022 300.16C520.302 301.2 518.282 301.72 515.962 301.72ZM538.486 301L549.286 286.12L538.486 271.24H546.706L554.266 281.8L561.766 271.24H570.046L559.186 286.12L570.046 301H561.766L554.266 290.44L546.706 301H538.486ZM588.199 301C585.079 301 582.579 300.24 580.699 298.72C578.819 297.2 577.879 294.5 577.879 290.62V277.66H572.779V271.24H577.879L578.779 263.26H585.559V271.24H593.599V277.66H585.559V290.68C585.559 292.12 585.859 293.12 586.459 293.68C587.099 294.2 588.179 294.46 589.699 294.46H593.419V301H588.199ZM597.673 307.66L612.673 254.38H620.173L605.113 307.66H597.673Z" fill="white"/>
<path d="M625.447 301V271.24H632.227L632.827 276.28C633.747 274.52 635.067 273.12 636.787 272.08C638.547 271.04 640.607 270.52 642.967 270.52C646.647 270.52 649.507 271.68 651.547 274C653.587 276.32 654.607 279.72 654.607 284.2V301H646.927V284.92C646.927 282.36 646.407 280.4 645.367 279.04C644.327 277.68 642.707 277 640.507 277C638.347 277 636.567 277.76 635.167 279.28C633.807 280.8 633.127 282.92 633.127 285.64V301H625.447ZM661.291 286.84V280.42H686.431V286.84H661.291ZM706.191 292.12C704.751 292.12 703.411 291.96 702.171 291.64L699.951 293.86C700.631 294.22 701.551 294.52 702.711 294.76C703.871 295 705.751 295.24 708.351 295.48C712.311 295.84 715.191 296.78 716.991 298.3C718.791 299.82 719.691 301.92 719.691 304.6C719.691 306.36 719.211 308.02 718.251 309.58C717.291 311.18 715.811 312.46 713.811 313.42C711.811 314.42 709.251 314.92 706.131 314.92C701.891 314.92 698.471 314.12 695.871 312.52C693.271 310.96 691.971 308.6 691.971 305.44C691.971 302.76 693.271 300.44 695.871 298.48C695.071 298.12 694.371 297.74 693.771 297.34C693.211 296.94 692.711 296.52 692.271 296.08V294.7L697.491 289.18C695.171 287.14 694.011 284.52 694.011 281.32C694.011 279.32 694.491 277.5 695.451 275.86C696.451 274.22 697.851 272.92 699.651 271.96C701.451 271 703.631 270.52 706.191 270.52C707.871 270.52 709.431 270.76 710.871 271.24H722.151V275.92L717.051 276.28C717.851 277.8 718.251 279.48 718.251 281.32C718.251 283.32 717.771 285.14 716.811 286.78C715.851 288.42 714.451 289.72 712.611 290.68C710.811 291.64 708.671 292.12 706.191 292.12ZM706.191 286.24C707.751 286.24 709.031 285.82 710.031 284.98C711.071 284.14 711.591 282.94 711.591 281.38C711.591 279.82 711.071 278.62 710.031 277.78C709.031 276.94 707.751 276.52 706.191 276.52C704.551 276.52 703.231 276.94 702.231 277.78C701.231 278.62 700.731 279.82 700.731 281.38C700.731 282.94 701.231 284.14 702.231 284.98C703.231 285.82 704.551 286.24 706.191 286.24ZM698.991 304.66C698.991 306.14 699.671 307.24 701.031 307.96C702.431 308.72 704.131 309.1 706.131 309.1C708.051 309.1 709.611 308.7 710.811 307.9C712.011 307.14 712.611 306.1 712.611 304.78C712.611 303.7 712.211 302.8 711.411 302.08C710.651 301.36 709.111 300.92 706.791 300.76C705.151 300.64 703.631 300.46 702.231 300.22C701.071 300.86 700.231 301.56 699.711 302.32C699.231 303.08 698.991 303.86 698.991 304.66ZM727.752 301V271.24H734.592L735.312 276.82C736.392 274.9 737.852 273.38 739.692 272.26C741.572 271.1 743.772 270.52 746.292 270.52V278.62H744.132C742.452 278.62 740.952 278.88 739.632 279.4C738.312 279.92 737.272 280.82 736.512 282.1C735.792 283.38 735.432 285.16 735.432 287.44V301H727.752ZM765.293 301.72C762.413 301.72 759.813 301.06 757.493 299.74C755.213 298.42 753.393 296.6 752.033 294.28C750.713 291.92 750.053 289.2 750.053 286.12C750.053 283.04 750.733 280.34 752.093 278.02C753.453 275.66 755.273 273.82 757.553 272.5C759.873 271.18 762.473 270.52 765.353 270.52C768.193 270.52 770.753 271.18 773.033 272.5C775.353 273.82 777.173 275.66 778.493 278.02C779.853 280.34 780.533 283.04 780.533 286.12C780.533 289.2 779.853 291.92 778.493 294.28C777.173 296.6 775.353 298.42 773.033 299.74C770.713 301.06 768.133 301.72 765.293 301.72ZM765.293 295.06C767.293 295.06 769.033 294.32 770.513 292.84C771.993 291.32 772.733 289.08 772.733 286.12C772.733 283.16 771.993 280.94 770.513 279.46C769.033 277.94 767.313 277.18 765.353 277.18C763.313 277.18 761.553 277.94 760.073 279.46C758.633 280.94 757.913 283.16 757.913 286.12C757.913 289.08 758.633 291.32 760.073 292.84C761.553 294.32 763.293 295.06 765.293 295.06ZM787.4 301V257.8H795.08V283.3L805.64 271.24H814.76L802.58 284.8L816.74 301H807.14L795.08 286.06V301H787.4Z" fill="#D0DBFF"/>
<g filter="url(#filter0_i)">
<path d="M324.081 360V332H341.401V334.76H327.441V344.52H340.201V347.24H327.441V357.24H341.401V360H324.081ZM344.459 360L351.339 350.08L344.459 340.16H348.099L353.659 348.36L359.259 340.16H362.859L355.979 350.08L362.859 360H359.259L353.659 351.8L348.099 360H344.459ZM366.381 368.8V340.16H369.421L369.741 343.44C370.381 342.48 371.288 341.613 372.461 340.84C373.661 340.067 375.181 339.68 377.021 339.68C378.994 339.68 380.714 340.133 382.181 341.04C383.648 341.947 384.781 343.187 385.581 344.76C386.408 346.333 386.821 348.12 386.821 350.12C386.821 352.12 386.408 353.907 385.581 355.48C384.781 357.027 383.634 358.253 382.141 359.16C380.674 360.04 378.954 360.48 376.981 360.48C375.354 360.48 373.901 360.147 372.621 359.48C371.368 358.813 370.408 357.88 369.741 356.68V368.8H366.381ZM376.621 357.56C377.954 357.56 379.128 357.253 380.141 356.64C381.154 356 381.954 355.12 382.541 354C383.128 352.88 383.421 351.573 383.421 350.08C383.421 348.587 383.128 347.28 382.541 346.16C381.954 345.04 381.154 344.173 380.141 343.56C379.128 342.92 377.954 342.6 376.621 342.6C375.288 342.6 374.114 342.92 373.101 343.56C372.088 344.173 371.288 345.04 370.701 346.16C370.114 347.28 369.821 348.587 369.821 350.08C369.821 351.573 370.114 352.88 370.701 354C371.288 355.12 372.088 356 373.101 356.64C374.114 357.253 375.288 357.56 376.621 357.56ZM400.538 360.48C398.672 360.48 396.992 360.053 395.498 359.2C394.005 358.347 392.818 357.147 391.938 355.6C391.085 354.027 390.658 352.187 390.658 350.08C390.658 347.973 391.098 346.147 391.978 344.6C392.858 343.027 394.045 341.813 395.538 340.96C397.058 340.107 398.752 339.68 400.618 339.68C402.485 339.68 404.165 340.107 405.658 340.96C407.152 341.813 408.325 343.027 409.178 344.6C410.058 346.147 410.498 347.973 410.498 350.08C410.498 352.187 410.058 354.027 409.178 355.6C408.298 357.147 407.098 358.347 405.578 359.2C404.085 360.053 402.405 360.48 400.538 360.48ZM400.538 357.6C401.685 357.6 402.752 357.32 403.738 356.76C404.725 356.2 405.525 355.36 406.138 354.24C406.752 353.12 407.058 351.733 407.058 350.08C407.058 348.427 406.752 347.04 406.138 345.92C405.552 344.8 404.765 343.96 403.778 343.4C402.792 342.84 401.738 342.56 400.618 342.56C399.472 342.56 398.405 342.84 397.418 343.4C396.432 343.96 395.632 344.8 395.018 345.92C394.405 347.04 394.098 348.427 394.098 350.08C394.098 351.733 394.405 353.12 395.018 354.24C395.632 355.36 396.418 356.2 397.378 356.76C398.365 357.32 399.418 357.6 400.538 357.6ZM422.77 360.48C420.397 360.48 418.423 359.88 416.85 358.68C415.277 357.48 414.357 355.853 414.09 353.8H417.53C417.743 354.84 418.29 355.747 419.17 356.52C420.077 357.267 421.29 357.64 422.81 357.64C424.223 357.64 425.263 357.347 425.93 356.76C426.597 356.147 426.93 355.427 426.93 354.6C426.93 353.4 426.49 352.6 425.61 352.2C424.757 351.8 423.543 351.44 421.97 351.12C420.903 350.907 419.837 350.6 418.77 350.2C417.703 349.8 416.81 349.24 416.09 348.52C415.37 347.773 415.01 346.8 415.01 345.6C415.01 343.867 415.65 342.453 416.93 341.36C418.237 340.24 419.997 339.68 422.21 339.68C424.317 339.68 426.037 340.213 427.37 341.28C428.73 342.32 429.517 343.813 429.73 345.76H426.41C426.277 344.747 425.837 343.96 425.09 343.4C424.37 342.813 423.397 342.52 422.17 342.52C420.97 342.52 420.037 342.773 419.37 343.28C418.73 343.787 418.41 344.453 418.41 345.28C418.41 346.08 418.823 346.707 419.65 347.16C420.503 347.613 421.65 348 423.09 348.32C424.317 348.587 425.477 348.92 426.57 349.32C427.69 349.693 428.597 350.267 429.29 351.04C430.01 351.787 430.37 352.88 430.37 354.32C430.397 356.107 429.717 357.587 428.33 358.76C426.97 359.907 425.117 360.48 422.77 360.48ZM444.09 360.48C442.197 360.48 440.517 360.053 439.05 359.2C437.583 358.32 436.423 357.107 435.57 355.56C434.743 354.013 434.33 352.187 434.33 350.08C434.33 348 434.743 346.187 435.57 344.64C436.397 343.067 437.543 341.853 439.01 341C440.503 340.12 442.223 339.68 444.17 339.68C446.09 339.68 447.743 340.12 449.13 341C450.543 341.853 451.623 342.987 452.37 344.4C453.117 345.813 453.49 347.333 453.49 348.96C453.49 349.253 453.477 349.547 453.45 349.84C453.45 350.133 453.45 350.467 453.45 350.84H437.65C437.73 352.36 438.077 353.627 438.69 354.64C439.33 355.627 440.117 356.373 441.05 356.88C442.01 357.387 443.023 357.64 444.09 357.64C445.477 357.64 446.637 357.32 447.57 356.68C448.503 356.04 449.183 355.173 449.61 354.08H452.93C452.397 355.92 451.37 357.453 449.85 358.68C448.357 359.88 446.437 360.48 444.09 360.48ZM444.09 342.52C442.49 342.52 441.063 343.013 439.81 344C438.583 344.96 437.877 346.373 437.69 348.24H450.17C450.09 346.453 449.477 345.053 448.33 344.04C447.183 343.027 445.77 342.52 444.09 342.52ZM470.69 368.8L475.61 358.08H474.45L466.57 340.16H470.21L476.77 355.6L483.73 340.16H487.21L474.21 368.8H470.69ZM497.921 360.48C496.054 360.48 494.374 360.053 492.881 359.2C491.388 358.347 490.201 357.147 489.321 355.6C488.468 354.027 488.041 352.187 488.041 350.08C488.041 347.973 488.481 346.147 489.361 344.6C490.241 343.027 491.428 341.813 492.921 340.96C494.441 340.107 496.134 339.68 498.001 339.68C499.868 339.68 501.548 340.107 503.041 340.96C504.534 341.813 505.708 343.027 506.561 344.6C507.441 346.147 507.881 347.973 507.881 350.08C507.881 352.187 507.441 354.027 506.561 355.6C505.681 357.147 504.481 358.347 502.961 359.2C501.468 360.053 499.788 360.48 497.921 360.48ZM497.921 357.6C499.068 357.6 500.134 357.32 501.121 356.76C502.108 356.2 502.908 355.36 503.521 354.24C504.134 353.12 504.441 351.733 504.441 350.08C504.441 348.427 504.134 347.04 503.521 345.92C502.934 344.8 502.148 343.96 501.161 343.4C500.174 342.84 499.121 342.56 498.001 342.56C496.854 342.56 495.788 342.84 494.801 343.4C493.814 343.96 493.014 344.8 492.401 345.92C491.788 347.04 491.481 348.427 491.481 350.08C491.481 351.733 491.788 353.12 492.401 354.24C493.014 355.36 493.801 356.2 494.761 356.76C495.748 357.32 496.801 357.6 497.921 357.6ZM519.793 360.48C517.446 360.48 515.58 359.773 514.193 358.36C512.806 356.92 512.113 354.72 512.113 351.76V340.16H515.473V351.4C515.473 355.533 517.166 357.6 520.553 357.6C522.286 357.6 523.713 356.987 524.833 355.76C525.98 354.507 526.553 352.733 526.553 350.44V340.16H529.913V360H526.873L526.633 356.44C526.02 357.693 525.1 358.68 523.873 359.4C522.673 360.12 521.313 360.48 519.793 360.48ZM535.444 360V340.16H538.484L538.764 343.96C539.377 342.653 540.31 341.613 541.564 340.84C542.817 340.067 544.364 339.68 546.204 339.68V343.2H545.284C544.11 343.2 543.03 343.413 542.044 343.84C541.057 344.24 540.27 344.933 539.684 345.92C539.097 346.907 538.804 348.267 538.804 350V360H535.444ZM560.561 360V331.2H563.921V360H560.561ZM578.468 360.48C576.601 360.48 574.921 360.053 573.428 359.2C571.935 358.347 570.748 357.147 569.868 355.6C569.015 354.027 568.588 352.187 568.588 350.08C568.588 347.973 569.028 346.147 569.908 344.6C570.788 343.027 571.975 341.813 573.468 340.96C574.988 340.107 576.681 339.68 578.548 339.68C580.415 339.68 582.095 340.107 583.588 340.96C585.081 341.813 586.255 343.027 587.108 344.6C587.988 346.147 588.428 347.973 588.428 350.08C588.428 352.187 587.988 354.027 587.108 355.6C586.228 357.147 585.028 358.347 583.508 359.2C582.015 360.053 580.335 360.48 578.468 360.48ZM578.468 357.6C579.615 357.6 580.681 357.32 581.668 356.76C582.655 356.2 583.455 355.36 584.068 354.24C584.681 353.12 584.988 351.733 584.988 350.08C584.988 348.427 584.681 347.04 584.068 345.92C583.481 344.8 582.695 343.96 581.708 343.4C580.721 342.84 579.668 342.56 578.548 342.56C577.401 342.56 576.335 342.84 575.348 343.4C574.361 343.96 573.561 344.8 572.948 345.92C572.335 347.04 572.028 348.427 572.028 350.08C572.028 351.733 572.335 353.12 572.948 354.24C573.561 355.36 574.348 356.2 575.308 356.76C576.295 357.32 577.348 357.6 578.468 357.6ZM602.22 360.48C600.327 360.48 598.62 360.053 597.1 359.2C595.607 358.32 594.42 357.107 593.54 355.56C592.687 353.987 592.26 352.16 592.26 350.08C592.26 348 592.687 346.187 593.54 344.64C594.42 343.067 595.607 341.853 597.1 341C598.62 340.12 600.327 339.68 602.22 339.68C604.567 339.68 606.54 340.293 608.14 341.52C609.767 342.747 610.793 344.387 611.22 346.44H607.78C607.513 345.213 606.86 344.267 605.82 343.6C604.78 342.907 603.567 342.56 602.18 342.56C601.06 342.56 600.007 342.84 599.02 343.4C598.033 343.96 597.233 344.8 596.62 345.92C596.007 347.04 595.7 348.427 595.7 350.08C595.7 351.733 596.007 353.12 596.62 354.24C597.233 355.36 598.033 356.213 599.02 356.8C600.007 357.36 601.06 357.64 602.18 357.64C603.567 357.64 604.78 357.307 605.82 356.64C606.86 355.947 607.513 354.973 607.78 353.72H611.22C610.82 355.72 609.807 357.347 608.18 358.6C606.553 359.853 604.567 360.48 602.22 360.48ZM622.512 360.48C620.859 360.48 619.486 360.2 618.392 359.64C617.299 359.08 616.486 358.333 615.952 357.4C615.419 356.467 615.152 355.453 615.152 354.36C615.152 352.333 615.926 350.773 617.472 349.68C619.019 348.587 621.126 348.04 623.792 348.04H629.152V347.8C629.152 346.067 628.699 344.76 627.792 343.88C626.886 342.973 625.672 342.52 624.152 342.52C622.846 342.52 621.712 342.853 620.752 343.52C619.819 344.16 619.232 345.107 618.992 346.36H615.552C615.686 344.92 616.166 343.707 616.992 342.72C617.846 341.733 618.899 340.987 620.152 340.48C621.406 339.947 622.739 339.68 624.152 339.68C626.926 339.68 629.006 340.427 630.392 341.92C631.806 343.387 632.512 345.347 632.512 347.8V360H629.512L629.312 356.44C628.752 357.56 627.926 358.52 626.832 359.32C625.766 360.093 624.326 360.48 622.512 360.48ZM623.032 357.64C624.312 357.64 625.406 357.307 626.312 356.64C627.246 355.973 627.952 355.107 628.432 354.04C628.912 352.973 629.152 351.853 629.152 350.68V350.64H624.072C622.099 350.64 620.699 350.987 619.872 351.68C619.072 352.347 618.672 353.187 618.672 354.2C618.672 355.24 619.046 356.08 619.792 356.72C620.566 357.333 621.646 357.64 623.032 357.64ZM637.553 360V331.2H640.913V360H637.553ZM646.42 360V331.2H649.78V343.56C650.447 342.333 651.393 341.387 652.62 340.72C653.847 340.027 655.18 339.68 656.62 339.68C658.913 339.68 660.753 340.4 662.14 341.84C663.527 343.253 664.22 345.44 664.22 348.4V360H660.9V348.76C660.9 344.627 659.233 342.56 655.9 342.56C654.167 342.56 652.713 343.187 651.54 344.44C650.367 345.667 649.78 347.427 649.78 349.72V360H646.42ZM678.351 360.48C676.484 360.48 674.804 360.053 673.311 359.2C671.817 358.347 670.631 357.147 669.751 355.6C668.897 354.027 668.471 352.187 668.471 350.08C668.471 347.973 668.911 346.147 669.791 344.6C670.671 343.027 671.857 341.813 673.351 340.96C674.871 340.107 676.564 339.68 678.431 339.68C680.297 339.68 681.977 340.107 683.471 340.96C684.964 341.813 686.137 343.027 686.991 344.6C687.871 346.147 688.311 347.973 688.311 350.08C688.311 352.187 687.871 354.027 686.991 355.6C686.111 357.147 684.911 358.347 683.391 359.2C681.897 360.053 680.217 360.48 678.351 360.48ZM678.351 357.6C679.497 357.6 680.564 357.32 681.551 356.76C682.537 356.2 683.337 355.36 683.951 354.24C684.564 353.12 684.871 351.733 684.871 350.08C684.871 348.427 684.564 347.04 683.951 345.92C683.364 344.8 682.577 343.96 681.591 343.4C680.604 342.84 679.551 342.56 678.431 342.56C677.284 342.56 676.217 342.84 675.231 343.4C674.244 343.96 673.444 344.8 672.831 345.92C672.217 347.04 671.911 348.427 671.911 350.08C671.911 351.733 672.217 353.12 672.831 354.24C673.444 355.36 674.231 356.2 675.191 356.76C676.177 357.32 677.231 357.6 678.351 357.6ZM700.583 360.48C698.209 360.48 696.236 359.88 694.663 358.68C693.089 357.48 692.169 355.853 691.903 353.8H695.343C695.556 354.84 696.103 355.747 696.983 356.52C697.889 357.267 699.103 357.64 700.623 357.64C702.036 357.64 703.076 357.347 703.743 356.76C704.409 356.147 704.743 355.427 704.743 354.6C704.743 353.4 704.303 352.6 703.423 352.2C702.569 351.8 701.356 351.44 699.783 351.12C698.716 350.907 697.649 350.6 696.583 350.2C695.516 349.8 694.623 349.24 693.903 348.52C693.183 347.773 692.823 346.8 692.823 345.6C692.823 343.867 693.463 342.453 694.743 341.36C696.049 340.24 697.809 339.68 700.023 339.68C702.129 339.68 703.849 340.213 705.183 341.28C706.543 342.32 707.329 343.813 707.543 345.76H704.223C704.089 344.747 703.649 343.96 702.903 343.4C702.183 342.813 701.209 342.52 699.983 342.52C698.783 342.52 697.849 342.773 697.183 343.28C696.543 343.787 696.223 344.453 696.223 345.28C696.223 346.08 696.636 346.707 697.463 347.16C698.316 347.613 699.463 348 700.903 348.32C702.129 348.587 703.289 348.92 704.383 349.32C705.503 349.693 706.409 350.267 707.103 351.04C707.823 351.787 708.183 352.88 708.183 354.32C708.209 356.107 707.529 357.587 706.143 358.76C704.783 359.907 702.929 360.48 700.583 360.48ZM719.924 360C718.111 360 716.684 359.56 715.644 358.68C714.604 357.8 714.084 356.213 714.084 353.92V343H710.644V340.16H714.084L714.524 335.4H717.444V340.16H723.284V343H717.444V353.92C717.444 355.173 717.698 356.027 718.204 356.48C718.711 356.907 719.604 357.12 720.884 357.12H722.964V360H719.924ZM745.979 360C744.166 360 742.739 359.56 741.699 358.68C740.659 357.8 740.139 356.213 740.139 353.92V343H736.699V340.16H740.139L740.579 335.4H743.499V340.16H749.339V343H743.499V353.92C743.499 355.173 743.752 356.027 744.259 356.48C744.766 356.907 745.659 357.12 746.939 357.12H749.019V360H745.979ZM762.101 360.48C760.234 360.48 758.554 360.053 757.061 359.2C755.567 358.347 754.381 357.147 753.501 355.6C752.647 354.027 752.221 352.187 752.221 350.08C752.221 347.973 752.661 346.147 753.541 344.6C754.421 343.027 755.607 341.813 757.101 340.96C758.621 340.107 760.314 339.68 762.181 339.68C764.047 339.68 765.727 340.107 767.221 340.96C768.714 341.813 769.887 343.027 770.741 344.6C771.621 346.147 772.061 347.973 772.061 350.08C772.061 352.187 771.621 354.027 770.741 355.6C769.861 357.147 768.661 358.347 767.141 359.2C765.647 360.053 763.967 360.48 762.101 360.48ZM762.101 357.6C763.247 357.6 764.314 357.32 765.301 356.76C766.287 356.2 767.087 355.36 767.701 354.24C768.314 353.12 768.621 351.733 768.621 350.08C768.621 348.427 768.314 347.04 767.701 345.92C767.114 344.8 766.327 343.96 765.341 343.4C764.354 342.84 763.301 342.56 762.181 342.56C761.034 342.56 759.967 342.84 758.981 343.4C757.994 343.96 757.194 344.8 756.581 345.92C755.967 347.04 755.661 348.427 755.661 350.08C755.661 351.733 755.967 353.12 756.581 354.24C757.194 355.36 757.981 356.2 758.941 356.76C759.927 357.32 760.981 357.6 762.101 357.6ZM795.159 360C793.345 360 791.919 359.56 790.879 358.68C789.839 357.8 789.319 356.213 789.319 353.92V343H785.879V340.16H789.319L789.759 335.4H792.679V340.16H798.519V343H792.679V353.92C792.679 355.173 792.932 356.027 793.439 356.48C793.945 356.907 794.839 357.12 796.119 357.12H798.199V360H795.159ZM802.787 360V331.2H806.147V343.56C806.814 342.333 807.761 341.387 808.987 340.72C810.214 340.027 811.547 339.68 812.987 339.68C815.281 339.68 817.121 340.4 818.507 341.84C819.894 343.253 820.587 345.44 820.587 348.4V360H817.267V348.76C817.267 344.627 815.601 342.56 812.267 342.56C810.534 342.56 809.081 343.187 807.907 344.44C806.734 345.667 806.147 347.427 806.147 349.72V360H802.787ZM834.598 360.48C832.705 360.48 831.025 360.053 829.558 359.2C828.091 358.32 826.931 357.107 826.078 355.56C825.251 354.013 824.838 352.187 824.838 350.08C824.838 348 825.251 346.187 826.078 344.64C826.905 343.067 828.051 341.853 829.518 341C831.011 340.12 832.731 339.68 834.678 339.68C836.598 339.68 838.251 340.12 839.638 341C841.051 341.853 842.131 342.987 842.878 344.4C843.625 345.813 843.998 347.333 843.998 348.96C843.998 349.253 843.985 349.547 843.958 349.84C843.958 350.133 843.958 350.467 843.958 350.84H828.158C828.238 352.36 828.585 353.627 829.198 354.64C829.838 355.627 830.625 356.373 831.558 356.88C832.518 357.387 833.531 357.64 834.598 357.64C835.985 357.64 837.145 357.32 838.078 356.68C839.011 356.04 839.691 355.173 840.118 354.08H843.438C842.905 355.92 841.878 357.453 840.358 358.68C838.865 359.88 836.945 360.48 834.598 360.48ZM834.598 342.52C832.998 342.52 831.571 343.013 830.318 344C829.091 344.96 828.385 346.373 828.198 348.24H840.678C840.598 346.453 839.985 345.053 838.838 344.04C837.691 343.027 836.278 342.52 834.598 342.52ZM863.037 360L857.237 340.16H860.597L864.797 355.72L869.437 340.16H873.237L877.917 355.72L882.077 340.16H885.477L879.677 360H876.237L871.357 343.64L866.477 360H863.037ZM897.491 360.48C895.625 360.48 893.945 360.053 892.451 359.2C890.958 358.347 889.771 357.147 888.891 355.6C888.038 354.027 887.611 352.187 887.611 350.08C887.611 347.973 888.051 346.147 888.931 344.6C889.811 343.027 890.998 341.813 892.491 340.96C894.011 340.107 895.705 339.68 897.571 339.68C899.438 339.68 901.118 340.107 902.611 340.96C904.105 341.813 905.278 343.027 906.131 344.6C907.011 346.147 907.451 347.973 907.451 350.08C907.451 352.187 907.011 354.027 906.131 355.6C905.251 357.147 904.051 358.347 902.531 359.2C901.038 360.053 899.358 360.48 897.491 360.48ZM897.491 357.6C898.638 357.6 899.705 357.32 900.691 356.76C901.678 356.2 902.478 355.36 903.091 354.24C903.705 353.12 904.011 351.733 904.011 350.08C904.011 348.427 903.705 347.04 903.091 345.92C902.505 344.8 901.718 343.96 900.731 343.4C899.745 342.84 898.691 342.56 897.571 342.56C896.425 342.56 895.358 342.84 894.371 343.4C893.385 343.96 892.585 344.8 891.971 345.92C891.358 347.04 891.051 348.427 891.051 350.08C891.051 351.733 891.358 353.12 891.971 354.24C892.585 355.36 893.371 356.2 894.331 356.76C895.318 357.32 896.371 357.6 897.491 357.6ZM912.123 360V340.16H915.163L915.443 343.96C916.057 342.653 916.99 341.613 918.243 340.84C919.497 340.067 921.043 339.68 922.883 339.68V343.2H921.963C920.79 343.2 919.71 343.413 918.723 343.84C917.737 344.24 916.95 344.933 916.363 345.92C915.777 346.907 915.483 348.267 915.483 350V360H912.123ZM926.655 360V331.2H930.015V360H926.655ZM944.522 360.48C942.548 360.48 940.815 360.027 939.322 359.12C937.855 358.213 936.708 356.973 935.882 355.4C935.082 353.827 934.682 352.04 934.682 350.04C934.682 348.04 935.095 346.267 935.922 344.72C936.748 343.147 937.895 341.92 939.362 341.04C940.828 340.133 942.562 339.68 944.562 339.68C946.188 339.68 947.628 340.013 948.882 340.68C950.135 341.347 951.108 342.28 951.802 343.48V331.2H955.162V360H952.122L951.802 356.72C951.162 357.68 950.242 358.547 949.042 359.32C947.842 360.093 946.335 360.48 944.522 360.48ZM944.882 357.56C946.215 357.56 947.388 357.253 948.402 356.64C949.442 356 950.242 355.12 950.802 354C951.388 352.88 951.682 351.573 951.682 350.08C951.682 348.587 951.388 347.28 950.802 346.16C950.242 345.04 949.442 344.173 948.402 343.56C947.388 342.92 946.215 342.6 944.882 342.6C943.575 342.6 942.402 342.92 941.362 343.56C940.348 344.173 939.548 345.04 938.962 346.16C938.402 347.28 938.122 348.587 938.122 350.08C938.122 351.573 938.402 352.88 938.962 354C939.548 355.12 940.348 356 941.362 356.64C942.402 357.253 943.575 357.56 944.882 357.56Z" fill="white"/>
</g>
<defs>
<filter id="filter0_i" x="324.081" y="331.2" width="631.081" height="41.6" filterUnits="userSpaceOnUse" color-interpolation-filters="sRGB">
<feFlood flood-opacity="0" result="BackgroundImageFix"/>
<feBlend mode="normal" in="SourceGraphic" in2="BackgroundImageFix" result="shape"/>
<feColorMatrix in="SourceAlpha" type="matrix" values="0 0 0 0 0 0 0 0 0 0 0 0 0 0 0 0 0 0 127 0" result="hardAlpha"/>
<feOffset dy="4"/>
<feGaussianBlur stdDeviation="2"/>
<feComposite in2="hardAlpha" operator="arithmetic" k2="-1" k3="1"/>
<feColorMatrix type="matrix" values="0 0 0 0 0 0 0 0 0 0 0 0 0 0 0 0 0 0 0.15 0"/>
<feBlend mode="normal" in2="shape" result="effect1_innerShadow"/>
</filter>
<clipPath id="clip0">
<rect width="80" height="62.7027" fill="white" transform="translate(50 50)"/>
</clipPath>
<clipPath id="clip1">
<rect width="80" height="62.7027" fill="white" transform="translate(1150 527)"/>
</clipPath>
</defs>
</svg>
